<?xml version="1.0" standalone="no"?>
<!DOCTYPE svg PUBLIC "-//W3C//DTD SVG 20010904//EN" "http://www.w3.org/TR/2001/REC-SVG-20010904/DTD/svg10.dtd">
<svg
  version="1.0"
  xmlns="http://www.w3.org/2000/svg"
  width="202.000000pt"
  height="184.000000pt"
  viewBox="0 0 202.000000 184.000000"
  preserveAspectRatio="xMidYMid meet"
>
  <g
    transform="translate(0.000000,184.000000) scale(0.100000,-0.100000)"
    fill="#000000"
    stroke="none"
  >
    <path
      d="M920 1760 c-25 -5 -67 -13 -95 -19 -195 -37 -406 -183 -531 -366 -24
-35 -76 -143 -97 -200 -62 -168 -62 -396 0 -560 36 -94 47 -121 60 -136 7 -8
13 -19 13 -23 0 -4 24 -39 53 -79 124 -167 274 -267 492 -327 99 -27 311 -27
410 0 218 60 368 160 492 327 29 40 53 75 53 79 0 4 6 15 13 23 12 15 29 52
61 139 61 162 61 390 -1 557 -49 135 -112 234 -208 331 -103 103 -194 160
-355 219 -90 33 -278 51 -360 35z m78 -449 c6 -55 -5 -76 -50 -100 -24 -12
-56 -31 -73 -41 -16 -10 -56 -32 -87 -49 -53 -29 -58 -30 -90 -17 -18 8 -41
23 -51 34 -17 19 -17 20 15 39 18 10 40 22 48 26 8 4 29 16 45 26 17 11 52 32
80 47 27 14 65 37 85 50 49 33 74 28 78 -15z m154 -4 c40 -24 80 -46 88 -50 8
-4 29 -16 45 -27 17 -11 37 -23 45 -27 8 -4 30 -16 48 -26 32 -19 32 -20 15
-39 -10 -11 -33 -26 -51 -34 -32 -13 -37 -12 -90 17 -31 17 -70 39 -87 49 -16
10 -48 28 -70 40 -50 28 -55 35 -55 86 0 69 13 70 112 11z m-40 -150 c40 -24
80 -46 88 -50 92 -46 90 -40 90 -218 0 -156 -1 -160 -22 -169 -13 -6 -39 -20
-58 -31 -19 -12 -57 -33 -83 -48 -26 -14 -58 -32 -70 -38 -12 -7 -29 -13 -37
-13 -8 0 -25 6 -37 13 -12 6 -44 24 -70 38 -26 15 -64 36 -83 48 -19 11 -45
25 -57 31 -22 9 -23 13 -23 169 0 179 -4 171 95 220 11 6 49 28 85 50 36 22
75 40 87 40 12 1 55 -18 95 -42z m-415 -107 c17 -21 18 -291 1 -311 -18 -22
-64 -49 -83 -49 -13 0 -15 27 -15 203 0 112 3 206 6 210 7 7 75 -32 91 -53z
m743 -154 c0 -111 -3 -206 -7 -209 -7 -8 -72 29 -90 51 -18 22 -17 291 0 312
16 21 80 58 90 53 4 -2 7 -95 7 -207z m-660 -221 c8 -7 22 -15 30 -19 8 -3 38
-20 65 -36 28 -17 64 -38 82 -47 33 -17 43 -37 43 -88 0 -52 -12 -59 -56 -34
-42 23 -186 106 -219 126 -11 7 -29 16 -40 21 -11 6 -28 19 -38 30 -18 20 -18
21 15 39 60 33 85 35 118 8z m598 -8 c32 -19 32 -20 15 -39 -10 -11 -27 -24
-38 -30 -11 -5 -29 -14 -40 -21 -33 -20 -177 -103 -219 -126 -44 -25 -56 -18
-56 34 0 55 10 70 73 105 34 19 82 47 107 62 84 51 95 52 158 15z"
    />
  </g>
</svg>
