<svg xmlns="http://www.w3.org/2000/svg" viewBox="0 0 40 41">
  <path fill="#004E96" d="M23.74.772h11.663v4.597H23.74z" />
  <path
    d="M35.423.772l4.991 7.225a3 3 0 0 1 .078 3.293l-6.313 10.123h-6.437L35.422.772z"
    fill="#0061BA"
  />
  <path
    fill-rule="evenodd"
    clip-rule="evenodd"
    d="M29.581 41.228a9.194 9.194 0 1 0 0-18.39 9.194 9.194 0 1 0 0 18.39zm0-16.866a7.671 7.671 0 1 0 0 15.343 7.671 7.671 0 0 0 0-15.343zm-5.901 7.671a5.902 5.902 0 1 1 11.803 0 5.902 5.902 0 0 1-11.803 0z"
    fill="#F7CC46"
  />
  <path
    fill-rule="evenodd"
    clip-rule="evenodd"
    d="M18.748 7.997L23.74.772l4.93 13.249-2.767 7.392h-.919L18.671 11.29a3 3 0 0 1 .077-3.293zm8.994 13.416h3.678l-1.834-4.928-1.844 4.928z"
    fill="#0061BA"
  />
</svg>
